) (`-.                           (` .-') /`           ) (`-.
       ( OO ).                          `.( OO ),'            ( OO ).
      (_/.  _)-.-'),-----. ,--.     ,--./  .--.  .-'),-----.(_/.  _)-.
         `.'  ( OO'  .-.  '|  |.-') |      |  | ( OO'  .-.  '  `.'  /
             /Y   |  | |  ||  | OO )|  |   |  |,/   |  | |  |      /
             _) |  ||  ||  |`-' ||  |.'.|  |_)_) |  ||  |      |
        .'    _) |  | |  (|  '---.'|         |    |  | |  | .'    _)
       /  .'.    `'  '-'  '|      | |   ,'.   |    `'  '-'  '/  .'.  
      '--'   '--'   `-----' `------' '--'   '--'      `-----''--'   '--'


      â–€â–€â–€â–€â–€â–€â–€â–€â–€â–€â–€â–€â–€â–€â–€â–€â–€â–€â–€â–€â–€â–€â–€â–€â–€â–€â–€â–€â–€â–€â–€â–€â–€â–€â–€â–€â–€â–€â–€â–€â–€â–€â–€â–€â–€â–€â–€â–€â–€â–€â–€â–€â–€â–€â–€â–€â–€â–€â–€â–€â–€â–€â–€â–€â–€â–€â–€â–€â–€â–€

                    â–ˆâ–‘â–‘â–‘â–‘â–‘â–‘â–‘â–‘â–‘â–‘â–‘â–‘â–‘â–‘â–‘â–‘â–‘â–‘â–‘â–‘â–‘â–‘â–‘â–‘â–‘â–‘â–‘â–‘â–‘â–ˆ
                   â–ˆâ–ˆ Funny People[2009]DvDrip-LW â–ˆâ–ˆ
                    â–ˆâ–‘â–‘â–‘â–‘â–‘â–‘â–‘â–‘â–‘â–‘â–‘â–‘â–‘â–‘â–‘â–‘â–‘â–‘â–‘â–‘â–‘â–‘â–‘â–‘â–‘â–‘â–‘â–‘â–‘â–ˆ

File Name    : Funny People[2009]DvDrip-LW
Type         : Movie
Format       : MP4
File Size    : 802 MB
Duration     : 02:32:27
Language     : English
Source       : DvD
Subtitles    : None
Genre        : Comedy
IMDB Link    : http://www.imdb.com/title/tt1201167/
IMDB Rating  : 7.2/10
IMDB Votes   : 13,364 Votes
     â–„â–„â–„â–„â–„â–„â–„â–„â–„â–„â–„â–„â–„â–„â–„â–„â–„â–„â–„â–„â–„â–„â–„â–„â–„â–„â–„â–„â–„â–„â–„â–„â–„â–„â–„â–„â–„â–„â–„â–„â–„â–„â–„â–„â–„â–„â–„â–„â–„â–„â–„â–„â–„â–„â–„â–„â–„â–„â–„â–„â–„â–„â–„â–„â–„â–„â–„â–„â–„â–„
 
                        â–ˆâ–‘â–‘â–‘â–‘â–‘â–‘â–‘â–‘â–‘â–‘â–‘â–‘â–‘â–‘â–‘â–‘â–‘â–‘â–‘â–‘â–‘â–‘â–‘â–‘â–ˆ
                       â–ˆâ–ˆ       Video Info       â–ˆâ–ˆ
                        â–ˆâ–‘â–‘â–‘â–‘â–‘â–‘â–‘â–‘â–‘â–‘â–‘â–‘â–‘â–‘â–‘â–‘â–‘â–‘â–‘â–‘â–‘â–‘â–‘â–‘â–ˆ

Format                           : MPEG-4 Visual
Format profile                   : Simple@L3
Format settings, BVOP            : No
Format settings, QPel            : No
Format settings, GMC             : No warppoints
Format settings, Matrix          : Default (H.263)
Codec ID                         : 20
Duration                         : 2h 32mn
Bit rate mode                    : Constant
Bit rate                         : 636 Kbps
Nominal bit rate                 : 512 Kbps
Width                            : 624 pixels
Height                           : 336 pixels
Display aspect ratio             : 1.857
Frame rate mode                  : Constant
Frame rate                       : 23.976 fps
Resolution                       : 24 bits
Colorimetry                      : 4:2:0
Scan type                        : Progressive
Bits/(Pixel*Frame)               : 0.127
Stream size                      : 694 MiB (87%)
     â–„â–„â–„â–„â–„â–„â–„â–„â–„â–„â–„â–„â–„â–„â–„â–„â–„â–„â–„â–„â–„â–„â–„â–„â–„â–„â–„â–„â–„â–„â–„â–„â–„â–„â–„â–„â–„â–„â–„â–„â–„â–„â–„â–„â–„â–„â–„â–„â–„â–„â–„â–„â–„â–„â–„â–„â–„â–„â–„â–„â–„â–„â–„â–„â–„â–„â–„â–„â–„â–„

                         â–ˆâ–‘â–‘â–‘â–‘â–‘â–‘â–‘â–‘â–‘â–‘â–‘â–‘â–‘â–‘â–‘â–‘â–‘â–‘â–‘â–‘â–‘â–‘â–‘â–‘â–ˆ
                        â–ˆâ–ˆ      Sound Info        â–ˆâ–ˆ
                         â–ˆâ–‘â–‘â–‘â–‘â–‘â–‘â–‘â–‘â–‘â–‘â–‘â–‘â–‘â–‘â–‘â–‘â–‘â–‘â–‘â–‘â–‘â–‘â–‘â–‘â–ˆ

Format                           : AAC
Format/Info                      : Advanced Audio Codec
Format version                   : Version 4
Format profile                   : LC
Format settings, SBR             : No
Codec ID                         : 40
Duration                         : 2h 32mn
Bit rate mode                    : Constant
Bit rate                         : 96.0 Kbps
Nominal bit rate                 : 48.0 Kbps
Channel(s)                       : 2 channels
Channel positions                : L R
Sampling rate                    : 24.0 KHz
Resolution                       : 16 bits
Stream size                      : 105 MiB (13%)
    â–„â–„â–„â–„â–„â–„â–„â–„â–„â–„â–„â–„â–„â–„â–„â–„â–„â–„â–„â–„â–„â–„â–„â–„â–„â–„â–„â–„â–„â–„â–„â–„â–„â–„â–„â–„â–„â–„â–„â–„â–„â–„â–„â–„â–„â–„â–„â–„â–„â–„â–„â–„â–„â–„â–„â–„â–„â–„â–„â–„â–„â–„â–„â–„â–„â–„â–„â–„â–„â–„

                          â–ˆâ–‘â–‘â–‘â–‘â–‘â–‘â–‘â–‘â–‘â–‘â–‘â–‘â–‘â–‘â–‘â–‘â–‘â–‘â–‘â–‘â–‘â–‘â–‘â–‘â–ˆ
                         â–ˆâ–ˆ          Plot          â–ˆâ–ˆ
                          â–ˆâ–‘â–‘â–‘â–‘â–‘â–‘â–‘â–‘â–‘â–‘â–‘â–‘â–‘â–‘â–‘â–‘â–‘â–‘â–‘â–‘â–‘â–‘â–‘â–‘â–ˆ

Famous and wealthy funnyman George Simmons (Adam 
Sandler) doesn't give much thought to how he treats 
people until a doctor (Torsten Voges) delivers 
stunning health news, forcing George to reevaluate 
his priorities with a little help from aspiring 
stand-up comic Ira (Seth Rogen). Judd Apatow (Knocked 
Up) writes and directs this moving comedy that also 
stars Leslie Mann, Jonah Hill, Jason Schwartzman and 
Aubrey Plaza.

Starring: Seth Rogen, Adam Sandler

Director: Judd Apatow
    â–„â–„â–„â–„â–„â–„â–„â–„â–„â–„â–„â–„â–„â–„â–„â–„â–„â–„â–„â–„â–„â–„â–„â–„â–„â–„â–„â–„â–„â–„â–„â–„â–„â–„â–„â–„â–„â–„â–„â–„â–„â–„â–„â–„â–„â–„â–„â–„â–„â–„â–„â–„â–„â–„â–„â–„â–„â–„â–„â–„â–„â–„â–„â–„â–„â–„â–„â–„â–„â–„

ScreenShots 
http://imgshack.info/images/pules6hgcz9guy2l6x5b.png 
http://imgshack.info/images/u5z79jgr01e3kdr3sy9j.png 
http://imgshack.info/images/mksi5jlpdg9nqx95kjf.png 
http://imgshack.info/images/5q2omoxwjf2vvguql5x4.jpg

Links
